<?xml version="1.0" standalone="no"?>
<!DOCTYPE svg PUBLIC "-//W3C//DTD SVG 1.1//EN" "http://www.w3.org/Graphics/SVG/1.1/DTD/svg11.dtd" >
<!--
2013-9-30: Created.
-->
<svg>
<metadata>
Created by iconfont
</metadata>
<defs>

<font id="iconfont" horiz-adv-x="1024" >
  <font-face
    font-family="iconfont"
    font-weight="500"
    font-stretch="normal"
    units-per-em="1024"
    ascent="896"
    descent="-128"
  />
    <missing-glyph />
    
    <glyph glyph-name="x" unicode="x" horiz-adv-x="1001"
d="M281 543q-27 -1 -53 -1h-83q-18 0 -36.5 -6t-32.5 -18.5t-23 -32t-9 -45.5v-76h912v41q0 16 -0.5 30t-0.5 18q0 13 -5 29t-17 29.5t-31.5 22.5t-49.5 9h-133v-97h-438v97zM955 310v-52q0 -23 0.5 -52t0.5 -58t-10.5 -47.5t-26 -30t-33 -16t-31.5 -4.5q-14 -1 -29.5 -0.5
t-29.5 0.5h-32l-45 128h-439l-44 -128h-29h-34q-20 0 -45 1q-25 0 -41 9.5t-25.5 23t-13.5 29.5t-4 30v167h911zM163 247q-12 0 -21 -8.5t-9 -21.5t9 -21.5t21 -8.5q13 0 22 8.5t9 21.5t-9 21.5t-22 8.5zM316 123q-8 -26 -14 -48q-5 -19 -10.5 -37t-7.5 -25t-3 -15t1 -14.5
t9.5 -10.5t21.5 -4h37h67h81h80h64h36q23 0 34 12t2 38q-5 13 -9.5 30.5t-9.5 34.5q-5 19 -11 39h-368zM336 498v228q0 11 2.5 23t10 21.5t20.5 15.5t34 6h188q31 0 51.5 -14.5t20.5 -52.5v-227h-327z" />
    

    
    <glyph glyph-name="msnui-triangle-down" unicode="&#58881;" d="M921.047 654.943q26.103 0 42.96-11.964t21.751-30.996-2.175-43.503-28.821-49.485q-90.269-104.407-169.663-192.502t-157.699-174.013q-19.577-21.751-47.31-33.171t-57.098-11.964-56.555 9.245-46.766 30.452q-43.504 44.591-89.726 92.988t-91.901 97.339-90.269 97.339-84.831 92.988q-18.489 20.665-23.926 42.96t0.544 41.328 22.295 30.452 42.416 11.42l256.669 0q81.569 0 169.663 0.544t165.312 0.544l225.13 0z"  horiz-adv-x="1024" />

    
    <glyph glyph-name="msnui-triangle-up" unicode="&#58882;" d="M102.953 113.057q-26.103 0-42.96 11.964t-21.751 30.996 2.175 43.503 28.821 49.485q90.269 104.407 169.663 192.502t157.699 174.013q19.577 21.751 47.31 33.171t57.098 11.964 56.555-9.245 46.766-30.452q43.504-44.591 89.726-92.988t91.901-97.339 90.269-97.339 84.831-92.988q18.489-20.665 23.926-42.96t-0.544-41.328-22.295-30.452-42.416-11.42l-256.669 0q-81.569 0-169.663-0.544t-165.312-0.544l-225.13 0z"  horiz-adv-x="1024" />

    
    <glyph glyph-name="jiahao" unicode="&#58883;" d="M1.057 430.016l1025.386 0 0-85.452-1025.386 0 0 85.452zM471.024 899.983l85.449 0 0-1025.387-85.449 0 0 1025.387z"  horiz-adv-x="1024" />

    
    <glyph glyph-name="wujiaoxing" unicode="&#58884;" d="M1022.089 491.861c-6.007 18.569-21.982 32.154-41.301 34.953l-292.181 51.337-130.662 262.963c-8.533 17.476-26.351 28.535-45.875 28.535s-37.274-11.059-46.012-28.535l-130.594-262.963-292.113-53.111c-19.319-2.799-35.362-16.384-41.301-34.953-6.076-18.5-1.024-38.912 12.971-52.497l211.354-195.311-55.228-283.853c-3.277-19.183 4.506-38.775 20.412-50.108 8.875-6.554 19.456-9.899 30.106-9.899 8.124 0 16.384 1.98 23.825 5.871l266.581 130.253 264.875-130.253c7.441-3.891 15.701-5.871 23.893-5.871 10.581 0 21.163 3.345 30.037 9.899 15.77 11.332 23.825 30.925 20.48 50.108l-53.521 283.853 211.422 197.154c13.926 13.517 18.91 33.929 12.834 52.429z"  horiz-adv-x="1024" />

    
    <glyph glyph-name="jianhao" unicode="&#58885;" d="M978.481 348.493l-932.948 0c-21.443 0-38.868 17.9-38.868 39.389 0 21.487 17.425 39.389 38.868 39.389l932.948 0c21.443 0 38.875-17.902 38.875-39.389 0-21.492-17.431-39.389-38.875-39.389z"  horiz-adv-x="1024" />

    
    <glyph glyph-name="fangdajing" unicode="&#58886;" d="M979.9-34.543l-281.259 281.259c53.931 64.99 86.426 148.548 86.426 239.684 0 207.326-168.073 375.467-375.467 375.467-207.326 0-375.467-168.141-375.467-375.467 0-207.462 168.141-375.467 375.467-375.467 91.682 0 175.582 32.905 240.777 87.45l281.19-281.19c6.69-6.69 15.428-9.967 24.166-9.967s17.476 3.345 24.166 9.967c13.312 13.312 13.312 34.953 0 48.265zM102.4 486.4c0 169.37 137.83 307.2 307.2 307.2s307.2-137.83 307.2-307.2c0-83.285-33.519-158.652-87.518-214.084-0.887-0.683-1.98-0.956-2.731-1.775-0.956-0.956-1.297-2.116-2.048-3.14-55.501-54.409-131.277-88.201-214.903-88.201-169.37 0-307.2 137.83-307.2 307.2z"  horiz-adv-x="1024" />

    
    <glyph glyph-name="youjiantou" unicode="&#58887;" d="M702.434 384.281l-454.24 454.225c-12.633 12.619-12.633 33.121 0 45.712 12.619 12.64 33.102 12.64 45.725 0l471.557-471.552c2.538-1.418 5.659-1.078 7.822-3.236 6.913-6.913 9.681-16.121 9.03-25.149 0.651-9.036-2.116-18.243-9.03-25.141-2.164-2.171-5.292-1.825-7.836-3.249l-471.542-471.568c-12.626-12.611-33.107-12.611-45.725 0-12.633 12.645-12.633 33.1 0 45.74l454.239 454.218z"  horiz-adv-x="1024" />

    
    <glyph glyph-name="caidan" unicode="&#58888;" d="M64.081 638.314l883.741 0c27.119 0 49.097 21.98 49.097 49.097s-21.98 49.097-49.097 49.097l-883.741 0c-27.107 0-49.097-21.98-49.097-49.097s21.989-49.097 49.097-49.097zM947.821 441.93l-883.741 0c-27.107 0-49.097-21.989-49.097-49.097 0-27.119 21.989-49.097 49.097-49.097l883.741 0c27.119 0 49.097 21.98 49.097 49.097 0 27.107-21.98 49.097-49.097 49.097zM947.821 147.348l-883.741 0c-27.107 0-49.097-21.98-49.097-49.097 0-27.107 21.989-49.097 49.097-49.097l883.741 0c27.119 0 49.097 21.989 49.097 49.097 0 27.119-21.98 49.097-49.097 49.097z"  horiz-adv-x="1024" />

    
    <glyph glyph-name="shanchu" unicode="&#58889;" d="M883.333 743.359l-205.536 0 0 71.446c0 30.816-25.07 55.887-55.887 55.887l-219.819 0c-30.816 0-55.887-25.07-55.887-55.887l0-71.446-205.536 0c-30.816 0-55.887-25.07-55.887-55.887l0-86.933c0-30.816 25.07-55.887 55.887-55.887l34.371 0 0-516.942c0-71.903 58.498-130.401 130.401-130.401l413.12 0c71.903 0 130.401 58.498 130.401 130.401l0 516.942 34.371 0c30.816 0 55.887 25.07 55.887 55.887l0 86.933c0 30.816-25.07 55.887-55.887 55.887zM408.301 808.596l207.399 0 0-65.236-207.399 0 0 65.236zM786.865 27.71c0-37.664-30.641-68.305-68.305-68.305l-413.12 0c-37.664 0-68.305 30.641-68.305 68.305l0 516.944 549.731 0 0-516.944zM877.123 606.749l-730.246 0 0 74.514 246.644 0c2.794-0.432 5.657-0.658 8.571-0.658l219.819 0c2.914 0 5.775 0.225 8.572 0.658l246.642 0 0-74.514zM513.242 54.718c17.148 0 31.049 13.902 31.049 31.049l0 350.22c0 17.148-13.902 31.049-31.049 31.049s-31.049-13.902-31.049-31.049l0-350.22c0-17.148 13.902-31.049 31.049-31.049zM674.069 54.718c17.148 0 31.049 13.902 31.049 31.049l0 350.22c0 17.148-13.902 31.049-31.049 31.049s-31.049-13.902-31.049-31.049l0-350.22c0-17.148 13.902-31.049 31.049-31.049zM352.414 54.718c17.148 0 31.049 13.902 31.049 31.049l0 350.22c0 17.148-13.902 31.049-31.049 31.049s-31.049-13.902-31.049-31.049l0-350.22c0-17.148 13.902-31.049 31.049-31.049z"  horiz-adv-x="1024" />

    
    <glyph glyph-name="fangdajing3" unicode="&#58890;" d="M1311.213-79.05c-11.958-11.74-40.509-19.83-52.477-8.091l-244.465 242.603c-68.518-54.675-147.641-80.5-242.707-80.5-220.048 0-398.437 175.538-398.437 392.151 0 216.532 178.389 392.079 398.437 392.079 220.047 0 398.441-175.55 398.441-392.079 0-101.275-31.257-185.188-95.278-254.742l241.541-243.654c11.974-11.82 6.917-35.949-5.056-47.766l0 0zM771.562 798.829c-186.167 0-337.177-148.55-337.177-331.719 0-183.251 151.015-331.801 337.177-331.801 186.241 0 337.187 148.55 337.187 331.801 0.001 183.169-150.945 331.719-337.187 331.719l0 0z"  horiz-adv-x="1821" />

    
    <glyph glyph-name="shanchu1" unicode="&#58891;" d="M325.008696 64c17.207652 0 31.165217 14.313739 31.165217 32.01113L356.173913 448.022261c0 17.65287-13.957565 32.01113-31.165217 32.01113S293.843478 465.67513 293.843478 448.022261l0-352.01113C293.843478 78.313739 307.778783 64 325.008696 64zM512 64c17.207652 0 31.165217 14.313739 31.165217 32.01113L543.165217 448.022261c0 17.65287-13.957565 32.01113-31.165217 32.01113-17.229913 0-31.165217-14.358261-31.165217-32.01113l0-352.01113C480.834783 78.313739 494.770087 64 512 64zM698.969043 64c17.229913 0 31.165217 14.313739 31.165217 32.01113L730.134261 448.022261c0 17.65287-13.935304 32.01113-31.165217 32.01113-17.207652 0-31.142957-14.358261-31.142957-32.01113l0-352.01113C667.826087 78.313739 681.761391 64 698.969043 64zM854.79513 799.98887l-129.068522 0C711.813565 855.062261 663.418435 896 605.495652 896l-186.991304 0c-57.922783 0-106.295652-40.937739-120.230957-96.01113L169.182609 799.98887c-68.763826 0-124.66087-57.433043-124.66087-127.977739L44.521739 640l31.165217 0 0-31.98887 62.330435 0L138.017391 0c0-70.566957 55.897043-128 124.66087-128l498.643478 0c68.741565 0 124.66087 57.433043 124.66087 128L885.982609 608.01113l62.330435 0L948.313043 640 979.478261 640l0 32.01113C979.478261 742.555826 923.558957 799.98887 854.79513 799.98887zM418.504348 832l186.991304 0c22.928696 0 42.852174-12.955826 53.648696-32.01113L364.855652 799.98887C375.652174 819.044174 395.553391 832 418.504348 832zM823.652174 0c0-35.305739-27.981913-64-62.330435-64L262.678261-64c-34.370783 0-66.649043 28.694261-66.649043 64L200.347826 608.01113l623.304348 0L823.652174 0zM106.852174 672.01113c0 35.305739 27.981913 63.977739 62.330435 63.977739l685.634783 0c34.370783 0 62.352696-28.672 62.352696-63.977739L106.852174 672.01113z"  horiz-adv-x="1024" />

    
    <glyph glyph-name="youjiantou1" unicode="&#58892;" d="M188.72 384.354c-0.099 7.635 2.675 15.242 8.482 21.051l480.016 480.014c11.424 11.423 29.927 11.423 41.351 0 11.424-11.424 11.424-29.929 0-41.351l-459.553-459.552 459.617-459.616c11.424-11.421 11.424-29.929 0-41.349-11.423-11.424-29.929-11.424-41.351 0l-480.013 480.014c-5.744 5.745-8.583 13.284-8.549 20.789z"  horiz-adv-x="1024" />

    
    <glyph glyph-name="wujiaoxingkong" unicode="&#58893;" d="M863.275-129.766c-12.545 0-25.147 3.093-36.522 8.954l-251.453 123.764-253.661-124.037c-24.529-12.955-58.436-10.684-82.14 6.614-23.916 17.025-36.249 47.276-31.285 76.768l52.3 268.613-199.49 184.263c-21.915 21.367-29.701 53.063-20.401 81.248 9.028 28.391 33.285 49.065 63.195 53.541l276.878 50.237 124.106 249.801c13.504 27.082 40.588 43.895 70.565 43.895 29.835 0 57.543-17.296 70.496-44.105l124.037-249.456 277.639-48.79c29.218-4.34 53.472-24.878 62.638-53.541 9.231-28.042 1.441-59.745-19.846-80.486l-200.109-186.613 50.58-268.128c5.17-29.769-7.17-60.025-31.49-77.529-13.166-9.578-29.635-15.018-46.036-15.018l0 0zM575.364 64.354l276.195-135.891c9.028-4.755 18.191-3.722 25.358 1.441 7.376 5.381 11.094 14.335 9.581 23.087l-56.161 297.554 221.89 206.937c5.858 5.721 8.199 15.092 5.441 23.501-2.822 8.746-10.06 14.885-19.085 16.192l-305.691 53.611-136.575 274.683c-7.926 16.33-34.044 16.26-42.177-0.075l-136.373-274.469-304.925-55.402c-9.789-1.45-17.022-7.65-19.71-16.194-2.896-8.611-0.484-17.986 5.858-24.256l221.481-204.594-58.023-298.108c-1.377-8.197 2.277-17.225 9.376-22.324 7.514-5.515 17.226-6.133 25.013-2.003l278.533 136.31z"  horiz-adv-x="1161" />

    
    <glyph glyph-name="jiantouxia" unicode="&#58894;" d="M1019.439 627.604c0-8.997-3.442-17.989-10.299-24.847l-472.034-472.102c-13.737-13.738-35.945-13.738-49.686 0l-472.102 472.102c-13.738 13.743-13.738 35.95 0 49.687 13.737 13.739 35.945 13.739 49.686 0l447.228-447.264 447.195 447.264c13.738 13.739 35.945 13.739 49.681 0 6.892-6.885 10.333-15.849 10.333-24.839l0 0zM1019.439 627.604z"  horiz-adv-x="1024" />

    
    <glyph glyph-name="magnifier" unicode="&#58895;" d="M966.0928-85.0944l-304.2816 331.9808c68.5568 71.7312 106.24 165.5296 106.24 265.1136 0 102.5536-39.936 199.0144-112.4864 271.5136s-168.96 112.4864-271.5136 112.4864-199.0144-39.936-271.5136-112.4864-112.4864-168.96-112.4864-271.5136 39.936-199.0144 112.4864-271.5136 168.96-112.4864 271.5136-112.4864c88.3712 0 172.1344 29.6448 240.0256 84.224l304.2816-331.9296c5.0688-5.5296 11.9296-8.2944 18.8928-8.2944 6.1952 0 12.3904 2.2016 17.3056 6.7072 10.4448 9.5744 11.1104 25.7536 1.5872 36.1472zM51.2 512c0 183.5008 149.2992 332.8 332.8 332.8s332.8-149.2992 332.8-332.8-149.2992-332.8-332.8-332.8-332.8 149.2992-332.8 332.8z"  horiz-adv-x="1024" />

    
    <glyph glyph-name="duigou" unicode="&#58896;" d="M384 32 19.2 396.8c-19.2 19.2-19.2 57.6 0 83.2s57.6 19.2 83.2 0L384 192l544 531.2c25.6 19.2 57.6 19.2 83.2 0 19.2-25.6 19.2-57.6 0-83.2L384 32z"  horiz-adv-x="1026" />

    
    <glyph glyph-name="fork" unicode="&#58897;" d="M558.013 384l432.54 432.54c12.692 12.692 12.692 33.322 0 46.013s-33.322 12.692-46.013 0l-432.54-432.54-432.54 432.607c-12.692 12.692-33.322 12.692-46.013 0s-12.692-33.322 0-46.013l432.54-432.607-432.54-432.54c-12.692-12.692-12.692-33.322 0-46.013 6.314-6.38 14.643-9.57 22.974-9.57s16.66 3.189 23.041 9.501l432.54 432.607 432.54-432.54c6.38-6.38 14.708-9.57 23.041-9.57s16.66 3.189 23.041 9.501c12.692 12.692 12.692 33.322 0 46.013l-432.607 432.607z"  horiz-adv-x="1024" />

    
    <glyph glyph-name="fangdajing1" unicode="&#58880;" d="M431.567 82.492c-216.912 0-393.539 176.545-393.623 393.561 0.085 217.115 176.711 393.785 393.706 393.828 217.075 0 393.706-176.63 393.787-393.745 0-217.054-176.63-393.642-393.869-393.642l0 0zM431.65 828.307c-194.1-0.042-352.048-158.049-352.129-352.253 0.083-194.081 158.028-351.965 352.048-351.965 194.245 0 352.292 157.924 352.292 352.048-0.083 194.163-158.048 352.171-352.211 352.171l0 0zM198.582 476.257l-41.596 0c0 151.457 123.289 274.687 274.665 274.687l0-41.577c-128.483 0.001-233.069-104.585-233.069-233.11l0 0zM925.565-54.532c-5.277 0-10.636 2.013-14.699 6.076l-231.529 231.51c-8.133 8.108-8.133 21.269 0 29.401 8.13 8.108 21.269 8.108 29.401 0l231.529-231.508c8.108-8.13 8.108-21.269 0-29.403-4.065-4.063-9.34-6.076-14.701-6.076l0 0z"  horiz-adv-x="1024" />

    
    <glyph glyph-name="shaixuanicon1" unicode="&#58898;" d="M963.239 851.783c-10.067 22.953-32.793 37.774-57.888 37.774l-786.75 0c-25.033 0-47.78-14.82-57.888-37.774-10.046-22.933-5.639-49.695 11.261-68.181l333.1-363.587 0-399.489c0-16.407 6.382-32.237 17.806-44.014 0 0 13.195-13.668 34.831-34.255l48.726-46.358c11.879-11.322 27.543-17.456 43.561-17.456 4.981 0 9.963 0.577 14.882 1.811 20.894 5.065 37.815 20.359 44.899 40.677 8.522 24.745 9.222 40.225 9.161 57.147l0 441.935 333.077 363.587c16.923 18.486 21.327 45.248 11.219 68.181zM555.723 444.636l0-466.556c0-10.519 0.474-18.529-5.722-36.398 0 0-25.177 24.002-48.645 46.358-20.545 19.536-33.06 32.484-33.06 32.484l0 424.11-349.693 381.662 786.75 0-349.63-381.662z"  horiz-adv-x="1024" />

    
    <glyph glyph-name="08hongbao" unicode="&#58899;" d="M843.222 893.957l-663.676 0c-30.942 0-60.043-11.969-81.939-33.702-21.943-21.779-34.028-50.75-34.028-81.573l0-787.433c0-63.563 52.022-115.276 115.968-115.276l663.676 0c63.946 0 115.968 51.712 115.968 115.276l0 787.433c-0.001 63.562-52.023 115.274-115.969 115.274zM843.222 847.387c6.556 0 12.893-0.925 18.911-2.613l-350.385-234.128-350.623 234.289c5.929 1.605 12.107 2.454 18.421 2.454l663.676 0zM912.619-8.75c0-37.883-31.131-68.704-69.396-68.704l-663.676 0c-38.265 0-69.396 30.821-69.396 68.704l0 787.433c0 13.318 3.821 26.051 10.921 37.002l377.741-252.409c3.914-2.615 8.427-3.925 12.937-3.925s9.023 1.309 12.937 3.925l377.2 252.045c6.788-10.613 10.736-23.175 10.736-36.639l0-787.433zM664.814 229.902c12.861 0 23.285 10.426 23.285 23.285s-10.426 23.285-23.285 23.285l-118.654 0 125.821 175.899c7.483 10.46 5.069 25.005-5.392 32.485-10.458 7.483-25.005 5.069-32.485-5.392l-117.07-163.663-117.071 163.663c-7.482 10.46-22.028 12.878-32.485 5.392-10.46-7.482-12.874-22.027-5.392-32.485l125.822-175.899-124.302 0c-12.861 0-23.285-10.426-23.285-23.285s10.426-23.285 23.285-23.285l130.144 0 0-68.267-130.144 0c-12.861 0-23.285-10.426-23.285-23.285s10.426-23.285 23.285-23.285l130.144 0 0-84.02c0-12.861 10.426-23.285 23.285-23.285s23.285 10.426 23.285 23.285l0 84.02 124.496 0c12.861 0 23.285 10.426 23.285 23.285s-10.426 23.285-23.285 23.285l-124.496 0 0 68.267 124.496 0z"  horiz-adv-x="1024" />

    
    <glyph glyph-name="duigou1" unicode="&#58900;" d="M961.145 733.461c-14.593 0-27.774-6.019-37.218-15.699l-0.045 0.045-558.876-559.489-262.013 262.915c-9.525 10.697-23.394 17.438-38.844 17.438-28.723 0-52.009-23.285-52.009-52.009 0-15.374 6.675-29.185 17.281-38.706l-0.058-0.058 298.683-299.882c0.067-0.068 0.129-0.141 0.198-0.208 9.428-9.541 22.522-15.453 36.995-15.453 14.489 0 27.595 5.925 37.024 15.481l594.533 595.769c10.065 9.485 16.356 22.926 16.356 37.847 0.001 28.723-23.285 52.009-52.009 52.009z"  horiz-adv-x="1024" />

    
    <glyph glyph-name="shangjiantou" unicode="&#58901;" d="M40.367 123.315c-8.635 0-17.252 3.391-23.686 10.129-12.491 13.078-12.014 33.807 1.067 46.298l477.365 455.879c12.767 12.192 32.899 12.071 45.517-0.276l465.909-455.879c12.927-12.649 13.152-33.381 0.505-46.307-12.649-12.927-33.381-13.152-46.307-0.505l-443.285 433.742-454.474-434.017c-6.34-6.055-14.482-9.065-22.61-9.065z"  horiz-adv-x="1024" />

    
    <glyph glyph-name="zhuyegouwudai" unicode="&#58902;" d="M936.883582 523.080597c-16.81194 85.58806-67.247761 97.814925-114.626866 97.814925l-51.964179 0C733.61194 785.958209 631.21194 896 512 896S290.38806 785.958209 253.707463 620.895522l-51.964179 0c-47.379104 0-97.814925-12.226866-114.626866-97.814925L0-28.656716C0-83.677612 42.79403-128 94.758209-128l832.955224 0c51.964179 0 94.758209 44.322388 94.758209 100.871642L936.883582 523.080597zM512 834.865672c87.116418 0 165.062687-85.58806 197.158209-213.970149L314.841791 620.895522C346.937313 749.277612 424.883582 834.865672 512 834.865672zM270.519403 468.059701c16.81194 0 29.038806 13.755224 29.038806 30.567164 0 19.868657 1.528358 41.265672 3.056716 61.134328l415.713433 0c3.056716-19.868657 3.056716-41.265672 3.056716-61.134328 0-16.81194 13.755224-30.567164 29.038806-30.567164 16.81194 0 29.038806 13.755224 29.038806 30.567164 0 19.868657-1.528358 39.737313-3.056716 61.134328l53.492537 0c25.98209 0 38.208955-10.698507 44.322388-39.737313l87.116418-548.680597c0-21.397015-16.81194-38.208955-36.680597-38.208955L94.758209-66.865672c-19.868657 0-36.680597 16.81194-36.680597 36.680597l87.116418 550.208955c6.113433 29.038806 18.340299 39.737313 44.322388 39.737313L244.537313 559.761194c-3.056716-21.397015-3.056716-41.265672-3.056716-61.134328C241.480597 481.814925 255.235821 468.059701 270.519403 468.059701z"  horiz-adv-x="1024" />

    
    <glyph glyph-name="zengpin" unicode="&#58904;" d="M969.928 618.988l-133.949 0 65.984 44.207c6.602 4.619 11.217 11.876 11.876 19.794 0.661 7.916-2.639 15.838-7.916 21.114l-181.447 171.548c-5.937 5.279-13.854 7.916-21.772 7.257-7.916-1.318-15.177-5.937-19.133-12.538l-153.078-251.391-44.207 0-153.078 251.391c-3.961 6.602-11.217 11.217-19.133 12.538s-15.838-1.318-21.772-7.257l-181.447-171.548c-5.937-5.279-8.578-13.193-7.916-21.114 0.661-7.916 5.279-15.177 11.876-19.794l65.984-44.207-134.603 0c-18.476 0-32.988-14.519-32.988-32.988l0-263.924c0-18.476 14.519-32.988 32.988-32.988l32.988 0 0-296.915c0-54.767 44.207-98.971 98.971-98.971l659.815 0c54.767 0 98.971 44.207 98.971 98.971l0 296.915 32.988 0c18.476 0 32.988 14.519 32.988 32.988l0 263.924c0 18.476-14.519 32.988-32.988 32.988zM711.275 814.949l133.949-126.686-104.253-69.281-149.117 0 119.429 195.969zM564.137-40.829l-112.172 0 0 593.837 112.172 0 0-593.837zM170.888 688.929l133.949 126.686 119.429-195.969-149.117 0-104.253 69.281zM79.174 553.006l320.014 0 0-197.942-320.014 0 0 197.942zM145.154-7.834l0 296.915 254.027 0 0-329.906-221.038 0c-18.476 0-32.988 15.177-32.988 32.988zM870.953-7.834c0-18.476-14.519-32.988-32.988-32.988l-221.038 0 0 329.906 254.027 0 0-296.915zM936.937 355.065l-320.014 0 0 197.942 320.014 0 0-197.942z"  horiz-adv-x="1024" />

    
    <glyph glyph-name="wushoucang" unicode="&#58905;" d="M923.515 561.198l-209.824 40.91-103.588 186.73c-19.133 34.969-54.767 55.425-94.357 55.425-40.249 0-75.222-21.114-94.357-55.425l-102.932-186.73-209.824-40.249c-38.927-7.257-69.281-34.317-81.817-71.922-12.538-38.269-3.961-78.519 23.757-108.214l145.815-155.713-26.393-211.807c-4.619-39.591 11.217-77.2 43.552-100.95 19.133-13.854 40.91-20.455 63.345-20.455 15.838 0 31.009 3.295 46.192 10.558l193.33 90.398 193.33-90.398c36.287-17.152 77.2-13.193 109.531 10.558s48.825 61.366 43.552 100.95l-26.393 211.807 145.815 155.713c27.051 29.033 36.287 68.621 23.757 106.891-13.193 36.953-43.552 64.66-82.481 71.922zM933.411 426.588l-156.38-166.937c-6.602-7.257-9.897-17.152-8.578-26.393l28.369-226.974c1.98-15.177-4.619-30.349-17.152-39.591-12.538-9.241-28.369-10.558-42.23-3.961l-207.186 96.995c-8.578 3.961-19.133 3.961-27.714 0l-207.186-96.995c-13.854-6.602-29.69-5.279-42.23 3.961-12.538 9.241-19.133 23.757-17.152 38.927l28.369 226.974c1.318 9.897-1.98 19.794-8.578 26.393l-156.38 166.937c-10.558 11.876-14.519 27.714-9.241 42.89 1.98 7.257 9.897 23.757 31.67 27.714l224.995 42.89c9.897 1.98 17.812 7.916 22.431 16.497l110.187 200.588c7.257 13.193 21.114 21.772 36.953 21.772s29.033-7.916 36.953-21.772l110.851-200.588c4.619-8.578 13.193-14.519 22.431-16.497l224.995-43.552c15.177-2.639 27.051-13.854 31.67-28.369 3.961-13.854 0-29.69-9.897-40.91zM771.756 685.899c2.639-0.661 5.279-1.318 7.916-1.318 14.519 0 28.369 9.897 31.67 25.071l32.988 131.965c4.619 17.812-6.602 35.63-23.757 40.249-17.812 4.619-35.63-6.602-40.249-23.757l-32.988-131.965c-3.961-18.476 6.602-36.287 24.407-40.249zM878.65 651.585c8.578 0 17.152 3.295 23.093 9.897l98.971 98.971c13.193 13.193 13.193 33.652 0 46.848s-33.652 13.193-46.848 0l-98.971-98.971c-13.193-13.193-13.193-33.652 0-46.848 6.602-6.602 15.177-9.897 23.757-9.897z"  horiz-adv-x="1024" />

    
    <glyph glyph-name="wujifen" unicode="&#58906;" d="M516.709 710.968c-123.386 0-224.34-100.95-224.34-224.34s100.95-224.34 224.34-224.34c123.386 0 224.34 100.95 224.34 224.34s-100.95 224.34-224.34 224.34zM516.709 315.074c-94.357 0-171.548 77.2-171.548 171.548 0 94.357 77.2 171.548 171.548 171.548 94.357 0 171.548-77.2 171.548-171.548 0-94.357-77.2-171.548-171.548-171.548zM1006.286 109.219l-131.965 197.942c-0.661 1.318-1.98 2.639-2.639 3.295 26.393 52.787 41.571 112.826 41.571 176.175 0 218.397-177.489 395.892-395.892 395.892s-395.892-177.489-395.892-395.892c0-63.345 15.177-122.727 41.571-176.175-1.318-1.318-1.98-1.98-2.639-3.295l-131.965-197.942c-5.937-9.241-7.257-20.455-3.295-31.009 3.961-9.897 13.193-17.812 23.757-19.794l152.418-30.349 91.713-122.067c5.937-8.578 15.838-13.193 26.393-13.193 0.661 0 1.98 0 2.639 0 11.217 1.318 21.114 7.916 26.393 17.812l93.693 186.73c24.407-4.619 49.488-7.257 75.222-7.257s50.805 2.639 75.222 7.257l93.693-186.73c5.279-9.897 15.177-17.152 26.393-17.812 1.318 0 1.98 0 3.295 0 10.558 0 19.794 4.619 26.393 13.193l91.713 122.067 152.418 30.349c10.558 1.98 19.794 9.241 23.757 19.794 3.295 9.897 1.98 21.772-3.961 31.009zM312.822-11.53l-66.64 89.072c-4.619 6.602-11.876 11.217-19.794 12.538l-116.786 23.093 90.398 135.922c44.87-59.386 106.228-106.228 176.827-133.286l-64.003-127.342zM516.709 156.722c-182.106 0-329.906 147.799-329.906 329.906s147.799 329.906 329.906 329.906 329.906-147.799 329.906-329.906c0-182.106-147.799-329.906-329.906-329.906zM807.023 90.081c-7.916-1.318-15.177-5.937-19.794-12.538l-66.64-89.072-64.003 128.007c70.604 27.051 131.965 73.244 176.827 133.286l90.398-135.922-116.786-23.757z"  horiz-adv-x="1024" />

    
    <glyph glyph-name="wudazhequan" unicode="&#58907;" d="M514.524 368.466c0 0 0 0 0 0s0 0 0 0l98.915 0c14.508 0 26.375 11.872 26.375 26.375s-11.872 26.375-26.375 26.375l-52.095 0 75.168 124.633c7.255 12.527 3.295 29.015-9.232 36.27s-29.015 3.295-36.27-9.232l-90.999-152.326-36.27 0-90.999 152.326c-7.255 12.527-23.734 16.483-36.27 9.232s-16.483-23.734-9.232-36.27l75.168-124.633-52.095 0c-14.508 0-26.375-11.872-26.375-26.375s11.872-26.375 26.375-26.375l98.915 0c0 0 0 0 0 0s0 0 0 0l6.598 0 0-46.162-105.509 0c-14.508 0-26.375-11.872-26.375-26.375s11.872-26.375 26.375-26.375l105.509 0 0-72.538c0-14.508 11.872-26.375 26.375-26.375s26.375 11.872 26.375 26.375l0 72.538 105.509 0c14.508 0 26.375 11.872 26.375 26.375s-11.872 26.375-26.375 26.375l-105.509 0 0 46.162 5.93 0zM920.725 61.832l78.473 78.473c11.872 11.872 13.187 29.673 3.295 42.861l-81.77 108.805 78.473 78.473c13.187 13.187 13.187 33.629 0 46.817l-78.473 78.473 81.77 108.805c9.891 13.187 8.577 31.651-3.295 42.861l-78.473 78.473 81.77 108.805c7.255 9.891 8.577 23.081 3.295 34.289s-17.149 18.459-29.673 18.459l-857.243 0c-54.731 0-98.915-44.183-98.915-98.915l0-791.298c0-54.731 44.183-98.915 98.915-98.915l857.243 0c12.527 0 23.734 7.255 29.673 18.459 5.276 11.209 4.619 24.4-3.295 34.289l-81.77 110.78zM118.875-33.781c-18.459 0-32.973 14.508-32.973 32.973l0 791.298c0 18.459 14.508 32.973 32.973 32.973l791.298 0-59.346-79.132c-9.891-13.187-8.577-31.651 3.295-42.861l78.473-78.473-81.77-109.463c-9.891-13.187-8.577-31.651 3.295-42.861l75.831-75.831-75.831-75.831c-11.872-11.872-13.187-29.673-3.295-42.861l81.77-108.805-78.473-78.473c-11.872-11.872-13.187-29.673-3.295-42.861l59.346-79.132-791.298 0z"  horiz-adv-x="1024" />

    
    <glyph glyph-name="mendiangouwudai" unicode="&#58908;" d="M967.808205 882.224827 958.670218 896 171.848695 896l-9.274374-11.729355C-37.915823 628.270645-10.092701 472.379329 24.14065 402.275972c34.506127-70.239744 104.20032-115.793287 177.84976-115.793287l6.683005 0c92.880128 3.682472 154.663825 49.781566 187.124134 83.19659 29.323388-33.415024 84.696857-78.013852 171.303143-78.013852 90.288759 0 146.616942 48.554076 174.71284 82.378263 39.41609-32.051145 116.202451-84.696857 196.807672-84.696857 52.782099 0 98.062866 21.685669 134.887587 64.375067C1210.305807 512.750133 977.764518 867.222163 967.808205 882.224827L967.808205 882.224827zM1026.318594 393.54715c-24.822589-29.050613-53.464038-42.825786-87.833777-42.825786-77.604688 0-158.346297 70.376132-176.349494 87.01545L762.135322 648.592435c0 0.545551 0.272776 1.091103 0.272776 1.636654 0 17.048482-13.775173 30.823655-30.823655 30.823655-17.048482 0-30.823655-13.775173-30.823655-30.823655l-0.272776 0 0-229.267981c-16.775706-22.913159-59.465104-67.784763-133.523708-67.784763-83.469366 0-126.977091 57.14651-138.706446 75.286095L428.257858 650.092701c0 17.048482-13.775173 30.823655-30.823655 30.823655-17.048482 0-30.823655-13.775173-30.823655-30.823655l0-220.675546c-15.139052-19.639851-67.102824-77.877464-160.392115-81.696324l-4.091636 0 0 0c-41.189132 0-94.925946 25.231753-122.476292 81.559936C52.10016 485.472563 32.051145 612.313266 201.99041 834.489078l723.264784 0C989.357485 733.016516 1111.151838 492.01918 1026.318594 393.54715L1026.318594 393.54715zM970.399574 251.431007c-17.048482 0-31.09643-13.911561-31.09643-30.960043l0 0 0-0.136388 0-0.136388 0-223.676079c0-34.369739-27.95951-62.329249-62.192861-62.329249L610.608418-65.807139l0 0L239.360682-65.807139c-34.369739 0-62.192861 27.823122-62.192861 62.329249L177.167821 220.334576c0 17.184869-13.911561 31.09643-31.09643 31.09643-17.184869 0-31.09643-13.911561-31.09643-31.09643L114.97496-9.615344c0-65.329782 52.918487-118.384656 118.111881-118.384656l650.297283 0c65.329782 0 118.111881 52.918487 118.111881 118.384656L1001.496004 220.470964C1001.496004 237.519446 987.584443 251.431007 970.399574 251.431007L970.399574 251.431007zM970.399574 251.431007"  horiz-adv-x="1117" />

    
    <glyph glyph-name="meiyoudingdan" unicode="&#58909;" d="M817.722 868.875l-593.811 0c-54.765 0-98.97-44.207-98.97-98.97l0-857.729c0-12.538 7.257-23.757 18.476-29.69 11.217-5.279 24.407-4.619 34.311 3.295l108.862 81.815 78.516-78.516c11.876-11.876 29.69-13.193 42.89-3.295l112.164 84.452 112.164-84.452c5.937-4.619 12.538-6.602 19.794-6.602 8.578 0 17.152 3.295 23.093 9.897l78.516 78.516 108.862-81.815c9.897-7.257 23.093-8.578 34.311-3.295s18.476 17.152 18.476 29.69l0 857.729c1.318 54.765-42.89 98.97-97.651 98.97zM850.711-21.852l-79.174 59.386c-13.193 9.897-31.669 8.578-42.89-3.295l-78.516-78.516-108.862 81.815c-5.937 4.619-12.538 6.602-19.794 6.602s-13.854-1.98-19.794-6.602l-108.862-81.815-78.516 78.516c-11.876 11.876-29.69 13.193-42.89 3.295l-79.174-59.386 0 791.754c0 18.476 14.519 32.987 32.987 32.987l593.811 0c18.476 0 32.987-14.519 32.987-32.987l0-791.754zM751.737 631.347l-461.855 0c-14.519 0-26.389-11.876-26.389-26.389s11.876-26.389 26.389-26.389l461.855 0c14.519 0 26.389 11.876 26.389 26.389s-11.876 26.389-26.389 26.389zM751.737 466.4l-461.855 0c-14.519 0-26.389-11.876-26.389-26.389s11.876-26.389 26.389-26.389l461.855 0c14.519 0 26.389 11.876 26.389 26.389s-11.876 26.389-26.389 26.389zM619.782 301.455l-329.899 0c-14.519 0-26.389-11.876-26.389-26.389s11.876-26.389 26.389-26.389l329.899 0c14.519 0 26.389 11.876 26.389 26.389s-11.876 26.389-26.389 26.389z"  horiz-adv-x="1024" />

    
    <glyph glyph-name="gouwudai" unicode="&#58910;" d="M1015.461 3.648l-65.324 554.252c-1.98 16.497-15.838 29.033-32.988 29.033l-98.971 0c0 163.634-133.286 296.915-296.915 296.915s-296.915-133.286-296.915-296.915l-98.971 0c-16.497 0-31.009-12.538-32.988-29.033l-65.324-554.903c-2.639-27.714 6.602-55.425 25.071-75.878 19.133-21.114 45.53-32.988 73.9-32.988l790.458 0c27.714 0 54.767 11.876 73.9 32.988 18.476 20.455 27.714 48.165 25.071 76.538zM521.26 817.863c127.342 0 230.934-103.588 230.934-230.934l-461.871 0c0 127.342 103.588 230.934 230.934 230.934zM941.563-28.682c-6.602-7.257-15.177-11.217-25.071-11.217l-790.458 0c-9.241 0-18.476 3.961-25.071 11.217s-9.241 15.838-8.578 24.407l62.019 525.215 733.057 0 62.019-524.556c1.318-9.241-1.98-18.476-7.916-25.071zM257.332 481.353c-43.552 0-79.179-35.63-79.179-79.179s35.63-79.179 79.179-79.179 79.179 35.63 79.179 79.179-35.63 79.179-79.179 79.179zM257.332 375.786c-14.519 0-26.393 11.876-26.393 26.393s11.876 26.393 26.393 26.393 26.393-11.876 26.393-26.393c0-14.519-11.876-26.393-26.393-26.393zM785.188 481.353c-43.552 0-79.179-35.63-79.179-79.179s35.63-79.179 79.179-79.179 79.179 35.63 79.179 79.179-35.63 79.179-79.179 79.179zM785.188 375.786c-14.519 0-26.393 11.876-26.393 26.393s11.876 26.393 26.393 26.393 26.393-11.876 26.393-26.393c0-14.519-11.876-26.393-26.393-26.393z"  horiz-adv-x="1024" />

    
    <glyph glyph-name="banggo" unicode="&#58903;" d="M912.44665 519.767469c-16.107121 0-28.731622-6.094586-38.744156-17.848432-9.577207-11.753845-14.801138-29.166949-14.801138-51.368657 0-47.015381 16.977776-70.523071 50.498002-70.523071 35.696863 0 53.545295 23.943018 53.545295 71.393726 0 21.76638-4.353276 38.744156-13.059828 50.498002C941.178271 513.672882 928.553771 519.767469 912.44665 519.767469zM419.220479 515.414193c-17.413104 0-30.472932-6.529914-39.614812-19.589742-9.14188-13.059828-13.495156-28.731622-13.495156-47.886036 0-17.848432 4.353276-33.084898 13.495156-44.838743 9.14188-12.189173 22.201708-18.283759 38.744156-18.283759 17.848432 0 30.90826 6.094586 40.050139 18.283759 8.706552 11.753845 13.059828 26.990311 13.059828 45.27407 0 19.589742-4.788604 35.696863-13.930483 48.321364C447.9521 509.319606 434.892272 515.414193 419.220479 515.414193zM831.911044 836.685962C471.459791 967.284242 107.961245 874.99479 19.589742 630.776007c-63.993157-176.307678 33.520225-383.958943 228.54699-535.01762l-89.677486-223.758386L439.680876-18.297445c23.072363-10.447862 47.015381-20.02507 71.829054-29.166949 360.015925-130.59828 723.949799-38.308829 812.321302 205.909955C1412.202734 402.664344 1191.926969 706.087682 831.911044 836.685962zM659.956642 504.095675l-37.002846 0 0-161.941867c0-36.132191-3.047293-63.993157-9.577207-83.147572-6.529914-19.589742-18.719087-36.132191-35.696863-50.062674-17.413104-14.365811-38.744156-24.813673-64.863812-30.90826-25.684328-6.529914-60.075209-10.012535-102.301986-10.012535-19.154414 0-36.132191 0.435328-50.933329 1.74131-14.801138 1.305983-31.778915 3.047293-51.368657 6.094586-32.64957 5.223931-56.592588 10.88319-71.393726 16.542449l41.79145 74.876347c23.50769-10.012535 55.721933-14.801138 95.336744-14.801138 26.554984 0 47.015381 3.917948 61.816519 11.318518 14.801138 7.400569 24.813673 16.107121 28.731622 25.684328 3.917948 10.012535 6.094586 23.943018 6.094586 42.226777-30.472932-15.236466-64.863812-23.072363-102.301986-23.072363-43.968088 0-80.970934 12.6245-111.443866 37.873501-30.472932 24.813673-46.144726 59.639881-46.144726 103.607969 0 46.580053 16.107121 83.582899 47.886036 111.008538 31.778915 27.425639 70.087744 40.920794 114.926486 40.920794 37.002846 0 69.217088-7.835897 97.078055-23.943018l0 18.283759 189.367506 0L659.956642 504.095675zM1061.764016 338.23586c-37.438174-30.037604-86.630192-44.838743-147.576056-44.838743-66.169795 0-117.538452 14.801138-154.541298 44.838743-37.002846 29.602277-55.286605 67.475778-55.286605 112.749848 0 43.53276 18.283759 80.100278 54.851278 109.702555 36.567518 30.037604 85.759537 44.838743 147.576056 44.838743 62.251847 0 113.185176-14.365811 152.36466-43.097432 39.179484-28.731622 58.769226-66.169795 58.769226-112.749848C1117.921277 405.27631 1099.20219 367.838136 1061.764016 338.23586z"  horiz-adv-x="1344" />

    
    <glyph glyph-name="svip" unicode="&#58911;" d="M1284.174 737.947l0 0c0 69.287-56.766 126.053-126.053 126.053l-1000.07 0c-69.287 0-126.053-56.766-126.053-126.053l0-707.061c0-70.122 56.766-126.053 126.053-126.053l999.234 0c69.287 0 126.053 56.766 126.053 126.053l0 368.974c0 0.834-0.834 1.67-0.834 2.504s0.834 1.67 0.834 2.504l0 333.078zM112.974 731.27c0 28.383 23.374 51.757 51.757 51.757l986.713 0c28.383 0 51.757-23.374 51.757-51.757l0-28.383-1090.226 0 0 28.383zM112.974 623.583l1091.061 0 0-75.13-1091.061 0 0 75.13zM1203.2 399.026l0-363.13c0-28.383-23.374-51.757-51.757-51.757l-986.713 0c-28.383 0-51.757 23.374-51.757 51.757l0 433.253 1091.061 0 0-65.113c0-0.834 0.834-1.67 0.834-2.504-0.834-0.834-1.67-1.67-1.67-2.504zM294.122 199.513l-81.809 0c-14.191 0-26.713-11.687-26.713-26.713l0-81.809c0-6.678 2.504-13.357 7.513-18.366 5.009-5.009 11.687-7.513 18.366-7.513l81.809 0c14.191 0 26.713 11.687 26.713 26.713l0 81.809c0.834 13.357-10.852 25.878-25.878 25.878zM613.009 176.139c-8.347 5.009-27.547 12.522-56.766 20.87-20.034 5.843-32.557 10.852-37.566 13.357-10.853 5.843-15.861 13.357-15.861 23.374 0 10.853 4.174 19.2 14.191 23.374 7.513 4.174 18.366 6.678 32.557 6.678 16.696 0 28.383-3.339 36.73-9.183 8.347-5.843 14.191-16.696 16.696-30.053l32.557 0c-2.504 23.374-10.852 40.904-25.878 52.591-14.191 10.852-34.226 15.861-59.27 15.861-23.374 0-42.574-5.009-57.6-15.861-15.861-10.853-24.209-25.878-24.209-45.078 0-19.2 8.347-33.391 25.043-43.409 6.678-3.339 23.374-9.183 50.087-17.53 24.209-7.513 38.4-12.522 43.409-14.191 13.357-6.678 20.87-16.696 20.87-28.383 0-10.017-5.009-17.53-14.191-22.539-10.017-5.843-22.539-8.347-39.234-8.347-18.366 0-31.722 3.339-40.07 10.017-10.017 7.513-15.861 20.034-18.366 36.73l-32.557 0c1.67-27.548 11.687-47.583 29.217-60.104 15.026-10.017 35.896-15.861 61.774-15.861 27.547 0 48.417 5.843 63.443 16.696 15.026 10.853 22.539 26.713 22.539 45.913 0 18.366-9.183 34.226-27.547 45.078zM749.913 108.522l-0.834 0-61.774 179.478-35.896 0 78.47-216.209 40.07 0 77.634 216.209-35.896 0zM870.957 288l32.557 0 0-217.043-32.557 0 0 217.043zM1036.243 288l-90.157 0 0-217.043 33.391 0 0 85.147 55.93 0c51.757 0 78.47 22.539 78.47 66.783 0 43.409-25.878 65.113-77.634 65.113zM1069.634 192.834c-7.513-5.843-19.2-9.183-35.896-9.183l-54.261 0 0 75.966 54.261 0c15.861 0 27.548-3.339 35.896-9.183 7.513-5.843 11.687-15.026 11.687-28.383s-4.174-22.539-11.687-29.217z"  horiz-adv-x="1336" />

    
    <glyph glyph-name="vip" unicode="&#58912;" d="M1284.174 737.947l0 0c0 69.287-56.766 126.053-126.053 126.053l-1000.07 0c-69.287 0-126.053-56.766-126.053-126.053l0-707.061c0-70.122 56.766-126.053 126.053-126.053l999.234 0c69.287 0 126.053 56.766 126.053 126.053l0 368.974c0 0.834-0.834 1.67-0.834 2.504s0.834 1.67 0.834 2.504l0 333.078zM112.974 731.27c0 28.383 23.374 51.757 51.757 51.757l986.713 0c28.383 0 51.757-23.374 51.757-51.757l0-28.383-1090.226 0 0 28.383zM112.974 623.583l1091.061 0 0-75.13-1091.061 0 0 75.13zM1203.2 399.026l0-363.13c0-28.383-23.374-51.757-51.757-51.757l-986.713 0c-28.383 0-51.757 23.374-51.757 51.757l0 433.253 1091.061 0 0-65.113c0-0.834 0.834-1.67 0.834-2.504-0.834-0.834-1.67-1.67-1.67-2.504zM294.122 199.513l-81.809 0c-14.191 0-26.713-11.687-26.713-26.713l0-81.809c0-6.678 2.504-13.357 7.513-18.366 5.009-5.009 11.687-7.513 18.366-7.513l81.809 0c14.191 0 26.713 11.687 26.713 26.713l0 81.809c0.834 13.357-10.852 25.878-25.878 25.878zM754.922 108.522l-0.834 0-61.774 179.478-35.061 0 77.634-216.209 40.07 0 77.634 216.209-35.896 0zM875.966 288l32.557 0 0-217.043-32.557 0 0 217.043zM1042.087 288l-90.157 0 0-217.043 33.391 0 0 85.147 55.93 0c51.757 0 78.47 22.539 78.47 66.783-0.834 43.409-25.878 65.113-77.634 65.113zM1074.643 192.834c-7.513-5.843-19.2-9.183-35.896-9.183l-54.261 0 0 75.966 54.261 0c15.861 0 27.548-3.339 35.896-9.183 7.513-5.843 11.687-15.026 11.687-28.383s-4.174-22.539-11.687-29.217z"  horiz-adv-x="1336" />

    
    <glyph glyph-name="vipe" unicode="&#58913;" d="M1284.174 737.947l0 0c0 69.287-56.766 126.053-126.053 126.053l-1000.07 0c-69.287 0-126.053-56.766-126.053-126.053l0-707.061c0-70.122 56.766-126.053 126.053-126.053l999.234 0c69.287 0 126.053 56.766 126.053 126.053l0 368.974c0 0.834-0.834 1.67-0.834 2.504s0.834 1.67 0.834 2.504l0 333.078zM112.974 731.27c0 28.383 23.374 51.757 51.757 51.757l986.713 0c28.383 0 51.757-23.374 51.757-51.757l0-28.383-1090.226 0 0 28.383zM112.974 623.583l1091.061 0 0-75.13-1091.061 0 0 75.13zM1203.2 399.026l0-363.13c0-28.383-23.374-51.757-51.757-51.757l-986.713 0c-28.383 0-51.757 23.374-51.757 51.757l0 433.253 1091.061 0 0-65.113c0-0.834 0.834-1.67 0.834-2.504-0.834-0.834-1.67-1.67-1.67-2.504zM294.122 199.513l-81.809 0c-14.191 0-26.713-11.687-26.713-26.713l0-81.809c0-6.678 2.504-13.357 7.513-18.366 5.009-5.009 11.687-7.513 18.366-7.513l81.809 0c14.191 0 26.713 11.687 26.713 26.713l0 81.809c0.834 13.357-10.852 25.878-25.878 25.878z"  horiz-adv-x="1336" />

    
    <glyph glyph-name="huidaozhuye" unicode="&#58914;" d="M974.361 331.398c17.58 11.527 12.345 38.887 0.934 50.881l-451.75 473.178c-5.701 5.937-13.506 9.197-21.772 9.197-8.148 0-16.067-3.261-21.653-9.197l-454.085-473.178c-11.527-11.995-12.924-34.236 4.544-45.405 15.954-9.084 34.697-4.307 46.221 7.685l30.621 29.343 0-446.283c0-9.782 15.251-25.147 31.902-25.147l144.841 0 0-0.582 430.096 0 0 0.582 148.331 0c16.654 0 33.767 15.251 33.767 31.902l0 438.137c0 0 22.467-22.703 29.923-31.669 7.452-8.847 31.318-20.26 48.082-9.433zM618.782-40.015l-232.865 0-0.235 343.823 233.095 0 0-343.823zM837.32-38.62l-159.745 0 0 371.185c0 16.654-13.506 30.038-30.038 30.038l-290.729 0c-16.533 0-30.038-13.393-30.161-30.038l-0.235-371.301-160.558 0 0 473.529 336.023 348.71 335.559-351.389-0.116-470.733zM728.224 741.358l65.204 0 0-99.315 58.798-74.748 0 200.959c0 16.654-13.506 32.601-30.038 32.601l-132.962 0-50.881 0.235 63.805-59.845 26.079 0.116z"  horiz-adv-x="1024" />

    
    <glyph glyph-name="zhuyegeren" unicode="&#58916;" d="M337.970443 896c-186.640394 0-337.970443-151.330049-337.970443-337.970443s151.330049-337.970443 337.970443-337.970443 337.970443 151.330049 337.970443 337.970443S524.610837 896 337.970443 896zM165.454187 329.016749c4.035468 6.053202 9.079803 12.106404 13.115271 19.168473 2.017734 3.026601 26.230542 28.248276 97.860099 31.274877 29.257143 0 50.44335 23.203941 50.44335 53.469951l1.008867 33.292611-17.150739 17.150739-1.008867 1.008867c-12.106404 6.053202-27.239409 16.141872-38.336946 23.203941l-2.017734 1.008867c-10.08867 7.062069-20.17734 17.150739-20.17734 19.168473l-1.008867 6.053202c-6.053202 30.26601-15.133005 84.744828-15.133005 103.9133 0 73.647291 32.283744 105.931034 105.931034 105.931034 72.638424 0 105.931034-33.292611 105.931034-105.931034 0-19.168473-9.079803-73.647291-15.133005-104.922167l0-5.044335c-1.008867-3.026601-12.106404-14.124138-21.186207-20.17734l-2.017734-2.017734c-11.097537-9.079803-26.230542-17.150739-37.328079-22.195074l-19.168473-18.159606 0-16.141872 0-7.062069 1.008867 0 0-9.079803c0-31.274877 22.195074-53.469951 51.452217-53.469951l0 0c74.656158-3.026601 95.842365-30.26601 95.842365-30.26601 4.035468-6.053202 8.070936-12.106404 13.115271-19.168473 2.017734-2.017734 4.035468-5.044335 5.044335-8.070936-51.452217-39.345813-112.993103-59.523153-177.560591-59.523153-64.567488 0-126.108374 20.17734-177.560591 59.523153C162.427586 323.972414 164.44532 326.999015 165.454187 329.016749zM532.681773 370.380296c-1.008867 2.017734-27.239409 45.399015-131.152709 50.44335-3.026601 0-6.053202 1.008867-8.070936 3.026601-2.017734 2.017734-3.026601 5.044335-3.026601 9.079803l0 15.133005c0 1.008867 0 1.008867 0 2.017734 13.115271 6.053202 25.221675 14.124138 38.336946 23.203941 2.017734 1.008867 40.35468 26.230542 40.35468 52.461084 1.008867 3.026601 16.141872 82.727094 16.141872 111.984236 0 55.487685-19.168473 147.294581-147.294581 147.294581-122.072906 0-147.294581-80.70936-147.294581-147.294581 0-30.26601 15.133005-108.957635 16.141872-110.975369 0-29.257143 38.336946-52.461084 40.35468-53.469951 13.115271-9.079803 26.230542-17.150739 38.336946-23.203941 0-1.008867 0-2.017734 0-3.026601l0-15.133005c0-12.106404-8.070936-12.106404-10.08867-12.106404-101.895567-4.035468-130.143842-48.425616-131.152709-49.434483-4.035468-6.053202-8.070936-11.097537-11.097537-17.150739-1.008867-2.017734-2.017734-3.026601-3.026601-5.044335-56.496552 56.496552-86.762562 130.143842-86.762562 208.835468 0 163.436453 133.170443 296.606897 296.606897 296.606897s296.606897-133.170443 296.606897-296.606897c0-78.691626-31.274877-153.347783-86.762562-208.835468-1.008867 1.008867-2.017734 3.026601-3.026601 4.035468C539.743842 359.282759 535.708374 364.327094 532.681773 370.380296z"  horiz-adv-x="11749" />

    
    <glyph glyph-name="weibiaoti3" unicode="&#58915;" d="M512 896C229.253731 896 0 666.746269 0 384S229.253731-128 512-128 1024 101.253731 1024 384 794.746269 896 512 896zM250.650746 37.062687c6.113433 9.170149 13.755224 18.340299 19.868657 29.038806 3.056716 4.585075 39.737313 42.79403 148.250746 47.379104 44.322388 0 76.41791 35.152239 76.41791 81.002985l1.528358 50.435821-25.98209 25.98209-1.528358 1.528358c-18.340299 9.170149-41.265672 24.453731-58.077612 35.152239l-3.056716 1.528358c-15.283582 10.698507-30.567164 25.98209-30.567164 29.038806l-1.528358 9.170149c-9.170149 45.850746-22.925373 128.38209-22.925373 157.420896 0 111.570149 48.907463 160.477612 160.477612 160.477612 110.041791 0 160.477612-50.435821 160.477612-160.477612 0-29.038806-13.755224-111.570149-22.925373-158.949254l0-7.641791c-1.528358-4.585075-18.340299-21.397015-32.095522-30.567164l-3.056716-3.056716c-16.81194-13.755224-39.737313-25.98209-56.549254-33.623881l-29.038806-27.510448 0-24.453731L530.340299 208.238806l1.528358 0 0-13.755224c0-47.379104 33.623881-81.002985 77.946269-81.002985l0 0c113.098507-4.585075 145.19403-45.850746 145.19403-45.850746 6.113433-9.170149 12.226866-18.340299 19.868657-29.038806 3.056716-3.056716 6.113433-7.641791 7.641791-12.226866-77.946269-59.60597-171.176119-90.173134-268.991045-90.173134s-191.044776 30.567164-268.991045 90.173134C246.065672 29.420896 249.122388 34.00597 250.650746 37.062687zM806.973134 99.725373c-1.528358 3.056716-41.265672 68.776119-198.686567 76.41791-4.585075 0-9.170149 1.528358-12.226866 4.585075-3.056716 3.056716-4.585075 7.641791-4.585075 13.755224l0 22.925373c0 1.528358 0 1.528358 0 3.056716 19.868657 9.170149 38.208955 21.397015 58.077612 35.152239 3.056716 1.528358 61.134328 39.737313 61.134328 79.474627 1.528358 4.585075 24.453731 125.325373 24.453731 169.647761 0 84.059701-29.038806 223.140299-223.140299 223.140299-184.931343 0-223.140299-122.268657-223.140299-223.140299 0-45.850746 22.925373-165.062687 24.453731-168.119403 0-44.322388 58.077612-79.474627 61.134328-81.002985 19.868657-13.755224 39.737313-25.98209 58.077612-35.152239 0-1.528358 0-3.056716 0-4.585075L432.525373 192.955224c0-18.340299-12.226866-18.340299-15.283582-18.340299-154.364179-6.113433-197.158209-73.361194-198.686567-74.889552-6.113433-9.170149-12.226866-16.81194-16.81194-25.98209-1.528358-3.056716-3.056716-4.585075-4.585075-7.641791-85.58806 85.58806-131.438806 197.158209-131.438806 316.370149 0 247.59403 201.743284 449.337313 449.337313 449.337313s449.337313-201.743284 449.337313-449.337313c0-119.21194-47.379104-232.310448-131.438806-316.370149-1.528358 1.528358-3.056716 4.585075-4.585075 6.113433C817.671642 82.913433 811.558209 90.555224 806.973134 99.725373z"  horiz-adv-x="1024" />

    
    <glyph glyph-name="shangpin" unicode="&#58917;" d="M378.569697 896 119.466667 896C52.751515 896 0 843.248485 0 776.533333l0-260.654545c0-65.163636 52.751515-119.466667 119.466667-119.466667l260.654545 0c65.163636 0 119.466667 52.751515 119.466667 119.466667L499.587879 776.533333C498.036364 843.248485 445.284848 896 378.569697 896zM439.078788 517.430303c0-32.581818-26.375758-58.957576-58.957576-58.957576L119.466667 458.472727c-32.581818 0-58.957576 26.375758-58.957576 58.957576L60.509091 776.533333c0 32.581818 26.375758 58.957576 58.957576 58.957576l260.654545 0c32.581818 0 58.957576-26.375758 58.957576-58.957576L439.078788 517.430303zM378.569697 370.036364 119.466667 370.036364c-65.163636 0-119.466667-52.751515-119.466667-119.466667l0-260.654545C0-75.248485 52.751515-128 119.466667-128l260.654545 0c65.163636 0 119.466667 52.751515 119.466667 119.466667L499.587879 250.569697C498.036364 317.284848 445.284848 370.036364 378.569697 370.036364zM439.078788-8.533333c0-32.581818-26.375758-58.957576-58.957576-58.957576L119.466667-67.490909c-32.581818 0-58.957576 26.375758-58.957576 58.957576L60.509091 250.569697c0 32.581818 26.375758 58.957576 58.957576 58.957576l260.654545 0c32.581818 0 58.957576-26.375758 58.957576-58.957576L439.078788-8.533333zM904.533333 896 645.430303 896c-65.163636 0-119.466667-52.751515-119.466667-119.466667l0-260.654545c0-65.163636 52.751515-119.466667 119.466667-119.466667l260.654545 0c65.163636 0 119.466667 52.751515 119.466667 119.466667L1025.551515 776.533333C1024 843.248485 971.248485 896 904.533333 896zM965.042424 517.430303c0-32.581818-26.375758-58.957576-58.957576-58.957576L645.430303 458.472727c-32.581818 0-58.957576 26.375758-58.957576 58.957576L586.472727 776.533333c0 32.581818 26.375758 58.957576 58.957576 58.957576l260.654545 0c32.581818 0 58.957576-26.375758 58.957576-58.957576L965.042424 517.430303zM940.218182 14.739394c24.824242 35.684848 40.339394 80.678788 40.339394 127.224242 0 125.672727-102.4 226.521212-226.521212 226.521212s-226.521212-102.4-226.521212-226.521212 102.4-226.521212 226.521212-226.521212c51.2 0 97.745455 17.066667 136.533333 46.545455l54.30303-57.406061c7.757576-7.757576 17.066667-10.860606 26.375758-10.860606 9.309091 0 18.618182 3.10303 24.824242 9.309091 7.757576 6.206061 10.860606 15.515152 12.412121 26.375758 0 9.309091-3.10303 18.618182-9.309091 26.375758L940.218182 14.739394zM584.921212 143.515152c0 93.090909 74.472727 167.563636 167.563636 167.563636s167.563636-74.472727 167.563636-167.563636c0-40.339394-13.963636-76.024242-37.236364-105.50303-3.10303-1.551515-6.206061-3.10303-9.309091-6.206061-4.654545-3.10303-7.757576-7.757576-9.309091-13.963636-29.478788-26.375758-68.266667-43.442424-111.709091-43.442424C660.945455-24.048485 584.921212 50.424242 584.921212 143.515152z"  horiz-adv-x="1026" />

    
    <glyph glyph-name="suoluetu" unicode="&#58918;" d="M391.634586 896 46.773013 896C21.0264 896 0 874.9736 0 849.226987l0-344.861573c0-25.746613 21.0264-46.773013 46.773013-46.773013l344.861573 0c25.746613 0 46.773013 21.0264 46.773013 46.773013L438.407599 849.226987C438.550636 874.9736 417.381198 896 391.634586 896L391.634586 896zM391.634586 504.365414C391.634586 504.365414 391.634586 504.365414 391.634586 504.365414l-344.718536-0.143037c0 0 0 0-0.143037 0.143037l0 344.718536c0 0 0 0 0.143037 0.143037l344.718536 0c0 0 0 0 0.143037-0.143037L391.777623 504.365414 391.634586 504.365414zM977.51306 896 632.651488 896c-25.746613 0-46.773013-21.0264-46.773013-46.773013l0-344.861573c0-25.746613 21.0264-46.773013 46.773013-46.773013l344.861573 0c25.746613 0 46.773013 21.0264 46.773013 46.773013L1024.286073 849.226987C1024.42911 874.9736 1003.259673 896 977.51306 896L977.51306 896zM977.51306 504.365414C977.51306 504.365414 977.51306 504.365414 977.51306 504.365414l-344.718536-0.143037c0 0 0 0-0.143037 0.143037l0 344.718536c0 0 0 0 0.143037 0.143037l344.718536 0c0 0 0 0 0.143037-0.143037L977.51306 504.365414 977.51306 504.365414zM391.634586 310.550636 46.773013 310.550636C21.0264 310.550636 0 289.524235 0 263.634586l0-344.861573c0-25.746613 21.0264-46.773013 46.773013-46.773013l344.861573 0c25.746613 0 46.773013 21.0264 46.773013 46.773013l0 344.861573C438.550636 289.524235 417.381198 310.550636 391.634586 310.550636L391.634586 310.550636zM391.634586-81.08395C391.634586-81.08395 391.634586-81.08395 391.634586-81.08395l-344.718536-0.143037c0 0 0 0-0.143037 0.143037l0 344.718536c0 0 0 0 0.143037 0.143037l344.718536 0c0 0 0 0 0.143037-0.143037L391.777623-81.08395 391.634586-81.08395zM977.51306 310.550636 632.651488 310.550636c-25.746613 0-46.773013-21.0264-46.773013-46.773013l0-344.861573c0-25.746613 21.0264-46.773013 46.773013-46.773013l344.861573 0c25.746613 0 46.773013 21.0264 46.773013 46.773013L1024.286073 263.634586C1024.42911 289.524235 1003.259673 310.550636 977.51306 310.550636L977.51306 310.550636zM977.51306-81.08395C977.51306-81.08395 977.51306-81.08395 977.51306-81.08395l-344.718536-0.143037c0 0 0 0-0.143037 0.143037l0 344.718536c0 0 0 0 0.143037 0.143037l344.718536 0c0 0 0 0 0.143037-0.143037L977.51306-81.08395 977.51306-81.08395 977.51306-81.08395z"  horiz-adv-x="1025" />

    
    <glyph glyph-name="liebiao" unicode="&#58919;" d="M118.221915 817.244383 39.466298 817.244383C17.697891 817.244383 0 834.942274 0 856.710681 0 878.479087 17.697891 896 39.466298 896l78.755617 0C139.990321 896 157.511234 878.479087 157.511234 856.710681 157.511234 834.942274 139.990321 817.244383 118.221915 817.244383L118.221915 817.244383 118.221915 817.244383zM1378.665745 817.244383 433.421362 817.244383c-21.768406 0-39.466298 17.697891-39.466298 39.466298 0 21.768406 17.697891 39.289319 39.466298 39.289319L1378.665745 896c21.591428 0 39.289319-17.520913 39.289319-39.289319C1417.955064 834.942274 1400.257172 817.244383 1378.665745 817.244383L1378.665745 817.244383 1378.665745 817.244383zM118.221915 344.533702 39.466298 344.533702C17.697891 344.533702 0 362.231594 0 384c0 21.768406 17.697891 39.289319 39.466298 39.289319l78.755617 0c21.768406 0 39.289319-17.520913 39.289319-39.289319C157.511234 362.231594 139.990321 344.533702 118.221915 344.533702L118.221915 344.533702 118.221915 344.533702zM1378.665745 344.533702 433.421362 344.533702c-21.768406 0-39.466298 17.697891-39.466298 39.466298 0 21.768406 17.697891 39.289319 39.466298 39.289319L1378.665745 423.289319c21.591428 0 39.289319-17.520913 39.289319-39.289319C1417.955064 362.231594 1400.257172 344.533702 1378.665745 344.533702L1378.665745 344.533702 1378.665745 344.533702zM118.221915-128 39.466298-128C17.697891-128 0-110.302109 0-88.533702c0 21.768406 17.697891 39.289319 39.466298 39.289319l78.755617 0c21.768406 0 39.289319-17.520913 39.289319-39.289319C157.511234-110.479087 139.990321-128 118.221915-128L118.221915-128 118.221915-128zM1378.665745-128 433.421362-128c-21.768406 0-39.466298 17.697891-39.466298 39.466298 0 21.768406 17.697891 39.289319 39.466298 39.289319L1378.665745-49.244383c21.591428 0 39.289319-17.520913 39.289319-39.289319C1417.955064-110.479087 1400.257172-128 1378.665745-128L1378.665745-128 1378.665745-128z"  horiz-adv-x="1418" />

    
    <glyph glyph-name="2" unicode="&#58920;" d="M492.488172 510.677278 125.288267 510.677278c-15.446965 0-28.096449-10.581779-28.096449-23.596152 0-13.014372 12.649483-23.596152 28.096449-23.596152L492.488172 463.484974c15.446965 0 28.096449 10.581779 28.096449 23.596152C520.584621 500.095498 507.935137 510.677278 492.488172 510.677278zM492.488172 301.717544 125.288267 301.717544c-15.446965 0-28.096449-10.581779-28.096449-23.596152s12.649483-23.596152 28.096449-23.596152L492.488172 254.525241c15.446965 0 28.096449 10.581779 28.096449 23.596152S507.935137 301.717544 492.488172 301.717544zM492.001653 92.63618 125.774786 92.63618c-15.811854 0-28.582967-10.581779-28.582967-23.596152 0-13.014372 12.771113-23.596152 28.582967-23.596152l366.226868 0c15.811854 0 28.582967 10.581779 28.582967 23.596152C520.584621 82.054401 507.813508 92.63618 492.001653 92.63618zM125.774786 672.687968 868.323782 672.687968c15.811854 0 28.582967 10.581779 28.582967 23.596152 0 13.014372-12.771113 23.596152-28.582967 23.596152L125.774786 719.880271c-15.811854 0-28.582967-10.581779-28.582967-23.596152C97.191819 683.269747 109.962931 672.687968 125.774786 672.687968zM675.540791 387.588075 766.154878 387.588075l0-306.385081c0-15.446965 10.581779-28.096449 23.596152-28.096449s23.596152 12.649483 23.596152 28.096449L813.347181 387.588075l90.614087 0c14.230669 0 21.163559 3.770519 22.501485 6.446371 1.094667 2.189334-0.12163 9.122224-7.905927 18.730966l-99.249792 124.06224c-8.149186 10.21689-18.609336 15.811854-29.556004 15.811854-10.946668 0-21.406818-5.594964-29.556004-15.811854l-99.249792-124.06224c-7.662668-9.608742-8.878964-16.541632-7.784297-18.730966C654.255603 391.358594 661.310122 387.588075 675.540791 387.588075z"  horiz-adv-x="1024" />

    
    <glyph glyph-name="1" unicode="&#58921;" d="M492.609315 510.677278 125.40941 510.677278c-15.446965 0-28.096449-10.581779-28.096449-23.596152 0-13.014372 12.649483-23.596152 28.096449-23.596152L492.609315 463.484974c15.446965 0 28.096449 10.581779 28.096449 23.596152C520.705764 500.095498 508.05628 510.677278 492.609315 510.677278zM492.609315 301.717544 125.40941 301.717544c-15.446965 0-28.096449-10.581779-28.096449-23.596152s12.649483-23.596152 28.096449-23.596152L492.609315 254.525241c15.446965 0 28.096449 10.581779 28.096449 23.596152S508.05628 301.717544 492.609315 301.717544zM492.122797 92.63618 125.895929 92.63618c-15.811854 0-28.582967-10.581779-28.582967-23.596152 0-13.014372 12.771113-23.596152 28.582967-23.596152l366.226868 0c15.811854 0 28.582967 10.581779 28.582967 23.596152C520.705764 82.054401 507.934651 92.63618 492.122797 92.63618zM125.895929 672.687968 868.444925 672.687968c15.811854 0 28.582967 10.581779 28.582967 23.596152 0 13.014372-12.771113 23.596152-28.582967 23.596152L125.895929 719.880271c-15.811854 0-28.582967-10.581779-28.582967-23.596152C97.312962 683.269747 110.084075 672.687968 125.895929 672.687968zM903.960782 218.036346l-90.614087 0L813.346695 524.421428c0 15.446965-10.581779 28.096449-23.596152 28.096449S766.276021 539.868393 766.276021 524.421428l0-306.385081-90.614087 0c-14.230669 0-21.163559-3.770519-22.501485-6.446371-1.094667-2.189334 0.12163-9.122224 7.905927-18.730966L760.194539 68.918399c8.149186-10.21689 18.609336-15.811854 29.556004-15.811854 10.946668 0 21.406818 5.594964 29.556004 15.811854l99.249792 124.06224c7.662668 9.608742 8.878964 16.541632 7.784297 18.730966C925.24597 214.265827 918.191451 218.036346 903.960782 218.036346z"  horiz-adv-x="1024" />

    
    <glyph glyph-name="kefu1" unicode="&#58922;" d="M827.507305 569.789286c-4.257038 18.730966-10.21689 36.975413-17.879558 54.733341-16.420002 37.82682-39.894524 71.883122-69.815418 100.952607-29.920893 29.069486-64.706972 51.935859-103.3852 67.990973-40.016154 16.420002-82.58653 24.934078-126.494833 24.934078-43.786673 0-86.23542-8.392446-126.373203-24.934078-38.678228-15.933484-73.464307-38.799857-103.3852-67.990973-29.920893-29.191115-53.395415-63.125787-69.815418-100.952607-7.905927-18.122817-13.86578-36.853783-18.244447-55.828008C125.70424 548.260839 77.174011 485.135052 77.174011 410.697708c0-43.786673 17.14978-85.140753 48.4086-116.521202 22.988003-22.988003 51.327711-38.434969 82.100012-44.88134 17.028151-3.52726 32.961634 9.487112 32.718375 26.758522L238.941442 500.460387c0 70.180306 28.096449 136.346835 79.059271 185.971731 51.327711 49.989785 119.440314 77.478085 191.931583 77.478085 72.49127 0 140.603872-27.4883 191.809954-77.356456 51.084452-49.746526 79.059271-115.791424 79.059271-185.971731l0-234.015441c0-70.180306-28.096449-136.346835-79.059271-185.971731-25.542226-24.934078-55.463119-44.273192-87.938235-57.409193 3.52726 11.068298 5.351704 22.866374 5.108445 35.029338-1.216296 56.801045-47.313933 103.141941-104.114978 104.601497-60.328305 1.581185-109.831571-47.070673-109.831571-107.03409 0-58.382231 46.827414-105.939423 104.966386-107.03409l0 0 1.337926 0 0.729778 0 1.824445 0 0.729778 0 0.364889 0c42.083858 0.608148 82.951419 8.878964 121.508018 24.934078 38.678228 15.933484 73.464307 38.799857 103.3852 67.990973 29.920893 29.069486 53.395415 63.125787 69.815418 100.952607 15.446965 35.637487 23.961041 73.221048 25.420596 111.899275 23.474522 8.027557 45.124599 21.406818 63.369046 39.772895 31.258819 31.258819 48.4086 72.612899 48.4086 116.521202C946.704359 486.716237 896.106426 550.936691 827.507305 569.789286L827.507305 569.789286 827.507305 569.789286zM164.017579 332.611474c-20.920299 20.920299-32.475116 48.773489-32.475116 78.086234 0 40.745932 21.406818 76.383418 53.273785 95.479273 0-1.824445-0.12163-3.770519-0.12163-5.716593l0-184.268916C177.275211 320.813398 170.463951 326.286732 164.017579 332.611474L164.017579 332.611474 164.017579 332.611474zM513.702815 3.11676l-2.432593 0c-28.704597 0.364889-51.935859 23.839411-51.935859 52.665637 0 29.069486 23.596152 52.665637 52.665637 52.665637 29.069486 0 52.665637-23.596152 52.665637-52.665637C564.665637 27.19943 541.920893 4.089797 513.702815 3.11676L513.702815 3.11676 513.702815 3.11676zM859.860791 332.611474c-7.419408-7.419408-15.811854-13.74415-24.569189-18.730966L835.291602 500.460387c0 2.675852 0 5.351704-0.12163 8.027557 33.934672-18.487706 57.287564-55.341489 57.287564-97.790236C892.457537 381.384963 880.90272 353.653403 859.860791 332.611474L859.860791 332.611474 859.860791 332.611474zM859.860791 332.611474"  horiz-adv-x="1024" />

    


  </font>
</defs>
</svg>
